<?xml version="1.0" encoding="UTF-8"?>
<svg version="1.1" xmlns="http://www.w3.org/2000/svg" width="1000" height="159">
<path d="M0 0 C330 0 660 0 1000 0 C1000 52.47 1000 104.94 1000 159 C670 159 340 159 0 159 C0 106.53 0 54.06 0 0 Z " fill="#2C903C" transform="translate(0,0)"/>
<path d="M0 0 C1.07865829 -0.0098568 1.07865829 -0.0098568 2.17910767 -0.01991272 C4.55926625 -0.03962365 6.93936171 -0.05130506 9.31958008 -0.0612793 C10.13428583 -0.06535482 10.94899158 -0.06943035 11.78838539 -0.07362938 C16.10289887 -0.09448348 20.41738063 -0.10878648 24.73193359 -0.11816406 C29.17606249 -0.12921054 33.61968821 -0.16359161 38.06363964 -0.20333576 C41.49102166 -0.22955644 44.91828495 -0.23786084 48.34575844 -0.24144554 C49.9831309 -0.24629961 51.62049848 -0.25787982 53.25777245 -0.27648354 C70.63233464 -0.46158911 70.63233464 -0.46158911 77.92504883 5.95825195 C78.37106445 6.52543945 78.81708008 7.09262695 79.27661133 7.67700195 C79.96883789 8.5277832 79.96883789 8.5277832 80.67504883 9.39575195 C84.90821578 15.54328103 84.34209688 21.58514059 84.40161133 28.86450195 C84.44286133 30.10651367 84.48411133 31.34852539 84.52661133 32.62817383 C84.60981123 42.44056226 82.18074679 47.39443879 75.77661133 54.55200195 C72.72861116 56.27478466 70.11714104 56.96280085 66.72192383 57.77856445 C65.63411621 58.04233887 64.54630859 58.30611328 63.42553711 58.57788086 C62.5926416 58.77559082 61.75974609 58.97330078 60.90161133 59.17700195 C63.73064008 62.03546203 66.56561912 64.8879518 69.40161133 67.73950195 C70.1930957 68.53936523 70.98458008 69.33922852 71.80004883 70.16333008 C76.20489307 74.58622696 80.66706234 78.81071949 85.4855957 82.78222656 C85.95288086 83.24250244 86.42016602 83.70277832 86.90161133 84.17700195 C86.90161133 84.83700195 86.90161133 85.49700195 86.90161133 86.17700195 C78.26665728 88.0663355 69.37978897 89.12931511 60.90161133 86.17700195 C55.83120945 82.57526313 51.98161444 77.41765207 48.02661133 72.67700195 C39.250602 62.14311338 39.250602 62.14311338 26.74453735 57.54199219 C17.17231792 56.80692751 7.34472256 57.46511996 -2.09838867 59.17700195 C-3.87329413 60.95190741 -3.3333884 63.55485098 -3.41479492 65.9621582 C-3.45668945 67.13198242 -3.49858398 68.30180664 -3.54174805 69.50708008 C-3.58106445 70.7387793 -3.62038086 71.97047852 -3.66088867 73.23950195 C-3.70407227 74.47506836 -3.74725586 75.71063477 -3.79174805 76.98364258 C-3.89822978 80.04795036 -3.99884933 83.1124608 -4.09838867 86.17700195 C-10.36838867 86.17700195 -16.63838867 86.17700195 -23.09838867 86.17700195 C-23.21176413 77.35325144 -23.30331854 68.52999191 -23.35744953 59.70567513 C-23.38344181 55.60729842 -23.41864689 51.50944981 -23.47558594 47.41137695 C-23.53028043 43.44964349 -23.55988701 39.488415 -23.57277489 35.52633286 C-23.58194825 34.02174821 -23.5998606 32.51718833 -23.62703896 31.0128212 C-23.77931995 22.22704855 -23.57769491 14.47486934 -18.09838867 7.17700195 C-12.2920001 1.78046374 -7.97364028 0.06030705 0 0 Z " fill="#FCFDFC" transform="translate(205.098388671875,36.822998046875)"/>
<path d="M0 0 C0.7371524 -0.00992981 1.47430481 -0.01985962 2.23379517 -0.03009033 C4.66867845 -0.05925914 7.10330089 -0.07292673 9.53833008 -0.08398438 C11.23741152 -0.09549627 12.93649294 -0.10701162 14.63557434 -0.11853027 C18.19895636 -0.13953102 21.76224842 -0.15122791 25.32568359 -0.15820312 C29.87423861 -0.16914982 34.42158925 -0.21715977 38.96976757 -0.27414703 C42.48128126 -0.31155107 45.9925097 -0.321819 49.5042057 -0.32487488 C51.17985915 -0.3308984 52.85550935 -0.34685556 54.53096581 -0.37324524 C70.31188446 -0.60399918 70.31188446 -0.60399918 76.97676086 4.67272949 C84.28491275 12.00727391 84.86974329 18.44381116 84.99536133 28.38476562 C85.05143555 30.02735352 85.05143555 30.02735352 85.10864258 31.703125 C85.18937331 39.23350838 84.09114716 45.12111198 79.62036133 51.32226562 C74.08213185 56.28570252 68.79559441 57.92999818 61.62036133 59.32226562 C64.99851861 62.72511149 68.37992416 66.12468302 71.7644043 69.52124023 C72.91569827 70.67756808 74.06609382 71.83479116 75.21557617 72.99291992 C76.86638708 74.65583773 78.5203847 76.31552673 80.17504883 77.97460938 C80.68969696 78.49441879 81.20434509 79.01422821 81.73458862 79.54978943 C84.41885447 82.27768251 84.41885447 82.27768251 87.62036133 84.32226562 C87.62036133 84.98226562 87.62036133 85.64226562 87.62036133 86.32226562 C83.26710615 86.5557082 78.91546695 86.69705992 74.55786133 86.82226562 C73.32874023 86.88929687 72.09961914 86.95632812 70.83325195 87.02539062 C61.94292045 87.21709589 61.94292045 87.21709589 58.45532227 84.85742188 C56.60670474 82.7822939 55.11769732 80.66297272 53.62036133 78.32226562 C45.17466849 65.89485617 45.17466849 65.89485617 32.46185303 58.80426025 C20.97317803 57.10330999 9.11599976 58.28820241 -2.37963867 59.32226562 C-2.70963867 68.23226562 -3.03963867 77.14226562 -3.37963867 86.32226562 C-9.64963867 86.32226562 -15.91963867 86.32226562 -22.37963867 86.32226562 C-22.47022232 77.33358081 -22.54351689 68.34520209 -22.58688736 59.35616302 C-22.60770929 55.18160462 -22.63592718 51.00737629 -22.68139648 46.83300781 C-22.72504833 42.7999805 -22.7488163 38.76726949 -22.75914764 34.73402405 C-22.76650452 33.19990565 -22.78087059 31.6658034 -22.8025589 30.13182068 C-22.92766272 20.91172909 -22.98827695 13.557517 -16.59838867 6.29882812 C-16.03120117 5.8528125 -15.46401367 5.40679687 -14.87963867 4.94726562 C-14.31245117 4.48578125 -13.74526367 4.02429687 -13.16088867 3.54882812 C-8.78785992 0.53757587 -5.26394452 0.01701942 0 0 Z " fill="#FBFCFB" transform="translate(742.379638671875,36.677734375)"/>
<path d="M0 0 C0.70135071 -0.0049649 1.40270142 -0.00992981 2.12530518 -0.01504517 C4.4399108 -0.02962043 6.75444787 -0.03646119 9.0690918 -0.04199219 C10.6832835 -0.04774766 12.29747519 -0.05350535 13.91166687 -0.05926514 C17.29511838 -0.06976208 20.67854622 -0.07561322 24.06201172 -0.07910156 C28.38617436 -0.08458212 32.71002147 -0.10860615 37.03408527 -0.13707352 C40.36877847 -0.15574675 43.70339638 -0.16090799 47.03813744 -0.16243744 C48.6316621 -0.16545416 50.22518576 -0.17344945 51.81865883 -0.18662262 C54.05382554 -0.20378106 56.28823068 -0.20177945 58.5234375 -0.1953125 C60.42727959 -0.20078094 60.42727959 -0.20078094 62.36958313 -0.20635986 C68.42011939 0.41365875 73.67182841 2.7644143 77.95581055 7.16113281 C82.51724147 14.23305914 83.74694724 20.34322261 83.58081055 28.66113281 C83.60014648 29.62921875 83.61948242 30.59730469 83.6394043 31.59472656 C83.58785235 39.27596721 81.62175422 45.83494087 76.58398438 51.7800293 C68.49458757 59.18400018 58.5325472 58.62977659 48.29956055 58.67285156 C46.78640302 58.68971972 45.27325932 58.70787281 43.76013184 58.72724915 C39.80155765 58.77452375 35.84303956 58.80447813 31.88427734 58.83068848 C27.83509244 58.86060856 23.78610039 58.90709921 19.73706055 58.95214844 C11.81005654 59.03792484 3.8830717 59.10384943 -4.04418945 59.16113281 C-4.37418945 68.07113281 -4.70418945 76.98113281 -5.04418945 86.16113281 C-11.31418945 86.16113281 -17.58418945 86.16113281 -24.04418945 86.16113281 C-24.15748678 77.18972759 -24.24907488 68.21880328 -24.30325031 59.24684238 C-24.32926167 55.08006107 -24.36450255 50.91379773 -24.42138672 46.74731445 C-24.47601192 42.7207479 -24.50567352 38.69467719 -24.51857567 34.66776848 C-24.52776126 33.13723897 -24.54569821 31.60673432 -24.57283974 30.07641792 C-24.71979702 21.44126407 -24.64091182 14.19328984 -19.04418945 7.16113281 C-16.9465332 5.00488281 -16.9465332 5.00488281 -14.98168945 3.66113281 C-14.33071289 3.19707031 -13.67973633 2.73300781 -13.0090332 2.25488281 C-8.80724938 -0.08408234 -4.74734512 0.02558717 0 0 Z " fill="#FAFCFB" transform="translate(79.044189453125,36.8388671875)"/>
<path d="M0 0 C0.80066895 -0.00043808 1.60133789 -0.00087616 2.42626953 -0.00132751 C5.05608036 0.00075196 7.68524281 0.02404278 10.31494141 0.04760742 C12.14482271 0.05320638 13.97470853 0.05747506 15.80459595 0.06047058 C20.6083835 0.07189576 25.41189664 0.10134286 30.21557617 0.13458252 C35.12235808 0.16533363 40.02918455 0.17898668 44.93603516 0.1940918 C54.55466437 0.2262149 64.17301833 0.27896377 73.79150391 0.34057617 C73.79150391 5.95057617 73.79150391 11.56057617 73.79150391 17.34057617 C70.39140015 17.3781604 70.39140015 17.3781604 66.92260742 17.41650391 C59.45066929 17.49981356 51.97880235 17.58852028 44.50695896 17.67991543 C39.97479804 17.73518539 35.44263072 17.78861176 30.91040039 17.83789062 C26.54021843 17.88547428 22.17011742 17.93781465 17.80003166 17.99351692 C16.12901755 18.01396775 14.45798122 18.03267623 12.78692818 18.04965019 C10.4544683 18.0736341 8.12216284 18.10369638 5.78979492 18.13525391 C5.09208481 18.14100937 4.39437469 18.14676483 3.67552185 18.1526947 C0.45357367 17.93498253 0.45357367 17.93498253 -2.20849609 19.34057617 C-2.53849609 23.63057617 -2.86849609 27.92057617 -3.20849609 32.34057617 C22.20150391 32.34057617 47.61150391 32.34057617 73.79150391 32.34057617 C73.79150391 38.28057617 73.79150391 44.22057617 73.79150391 50.34057617 C48.38150391 50.34057617 22.97150391 50.34057617 -3.20849609 50.34057617 C-2.71349609 58.26057617 -2.71349609 58.26057617 -2.20849609 66.34057617 C22.87150391 66.67057617 47.95150391 67.00057617 73.79150391 67.34057617 C73.79150391 73.28057617 73.79150391 79.22057617 73.79150391 85.34057617 C63.2382189 85.45372666 52.68533953 85.54537835 42.13158417 85.59963703 C37.23055915 85.62568405 32.32997217 85.66099232 27.42919922 85.71777344 C22.69590475 85.7722683 17.96303049 85.80203351 13.22944641 85.81496239 C11.42736703 85.82417099 9.62530957 85.84215345 7.82341003 85.86922646 C-9.23433393 86.11522347 -9.23433393 86.11522347 -14.83581543 81.71012878 C-15.28880005 81.25817642 -15.74178467 80.80622406 -16.20849609 80.34057617 C-16.70111938 79.85265091 -17.19374268 79.36472565 -17.70129395 78.86201477 C-21.78323379 74.36887978 -23.45212318 70.11530372 -23.4831543 64.1105957 C-23.49268631 63.0924881 -23.50221832 62.07438049 -23.51203918 61.02542114 C-23.51112778 59.93575043 -23.51021637 58.84607971 -23.50927734 57.72338867 C-23.51356247 56.59287079 -23.5178476 55.46235291 -23.52226257 54.2975769 C-23.52799943 51.90875925 -23.52851089 49.51992412 -23.52416992 47.13110352 C-23.52101359 43.48577897 -23.54446571 39.84126898 -23.56982422 36.19604492 C-23.5720977 33.87182719 -23.57280048 31.54760729 -23.57177734 29.22338867 C-23.58098709 28.13776642 -23.59019684 27.05214417 -23.59968567 25.93362427 C-23.55324813 18.29631999 -22.5427158 12.54545847 -17.39599609 6.59057617 C-16.93580078 6.03885742 -16.47560547 5.48713867 -16.00146484 4.91870117 C-11.12682268 0.62816646 -6.28164129 -0.09092017 0 0 Z " fill="#FDFEFD" transform="translate(871.20849609375,36.659423828125)"/>
<path d="M0 0 C0.80008484 -0.00014603 1.60016968 -0.00029205 2.42449951 -0.0004425 C5.075833 0.00025559 7.72709671 0.00804318 10.37841797 0.01586914 C12.21401938 0.01773369 14.0496213 0.01915742 15.88522339 0.02015686 C20.72183602 0.02397916 25.55841874 0.033807 30.39501953 0.04486084 C35.32828364 0.05508113 40.26155258 0.05965581 45.19482422 0.06469727 C54.87843325 0.07542951 64.56201219 0.093024 74.24560547 0.11352539 C74.24560547 5.72352539 74.24560547 11.33352539 74.24560547 17.11352539 C70.84550171 17.15110962 70.84550171 17.15110962 67.37670898 17.18945312 C59.90477085 17.27276278 52.43290392 17.3614695 44.96106052 17.45286465 C40.42889961 17.50813461 35.89673229 17.56156098 31.36450195 17.61083984 C26.99431999 17.6584235 22.62421899 17.71076387 18.25413322 17.76646614 C16.58311912 17.78691697 14.91208278 17.80562545 13.24102974 17.82259941 C10.90856987 17.84658332 8.5762644 17.8766456 6.24389648 17.90820312 C5.54618637 17.91395859 4.84847626 17.91971405 4.12962341 17.92564392 C0.90767523 17.70793175 0.90767523 17.70793175 -1.75439453 19.11352539 C-2.08439453 23.40352539 -2.41439453 27.69352539 -2.75439453 32.11352539 C22.65560547 32.11352539 48.06560547 32.11352539 74.24560547 32.11352539 C74.24560547 38.05352539 74.24560547 43.99352539 74.24560547 50.11352539 C48.83560547 50.11352539 23.42560547 50.11352539 -2.75439453 50.11352539 C-3.47592244 58.89470006 -3.47592244 58.89470006 -0.75439453 66.11352539 C1.58713388 66.23836693 3.90068132 66.2995183 6.24389648 66.31884766 C6.9755603 66.32874725 7.70722412 66.33864685 8.46105957 66.34884644 C10.89051019 66.38054922 13.3199804 66.40525332 15.74951172 66.42993164 C17.42960634 66.45049361 19.1096957 66.47148987 20.78977966 66.49290466 C25.2202835 66.54820365 29.65083462 66.59757826 34.0814209 66.64575195 C38.59908272 66.69590999 43.11667555 66.75162573 47.63427734 66.80688477 C56.5046634 66.91456202 65.3751078 67.01547226 74.24560547 67.11352539 C74.24560547 73.05352539 74.24560547 78.99352539 74.24560547 85.11352539 C63.82269666 85.20405039 53.40005082 85.27737038 42.97683716 85.32077408 C38.13642723 85.34161024 33.29630123 85.36985505 28.45605469 85.4152832 C23.78113023 85.45888297 19.10647813 85.48269235 14.43136597 85.49303436 C12.65163895 85.50040043 10.87192611 85.51478461 9.09231567 85.53644562 C6.59100641 85.56566817 4.09080915 85.56947364 1.58935547 85.56762695 C0.86070786 85.58200806 0.13206024 85.59638916 -0.6186676 85.61120605 C-6.89833402 85.56134678 -12.01246343 83.47963196 -16.77783203 79.36743164 C-17.22384766 78.80926758 -17.66986328 78.25110352 -18.12939453 77.67602539 C-18.59087891 77.12043945 -19.05236328 76.56485352 -19.52783203 75.99243164 C-22.07260182 72.09423334 -23.0050264 68.55650117 -23.06079102 63.93115234 C-23.07677841 62.92272781 -23.09276581 61.91430328 -23.10923767 60.87532043 C-23.11460037 59.79506088 -23.11996307 58.71480133 -23.12548828 57.60180664 C-23.13451675 56.47840378 -23.14354523 55.35500092 -23.15284729 54.19755554 C-23.16734196 51.82134664 -23.17623457 49.44509789 -23.17993164 47.06884766 C-23.1917958 43.45609109 -23.24096539 39.84506074 -23.29150391 36.23266602 C-23.30097254 33.91822118 -23.30820547 31.6037659 -23.31298828 29.28930664 C-23.3325206 28.21916824 -23.35205292 27.14902985 -23.37217712 26.04646301 C-23.32914113 18.79427484 -21.97655717 13.11303375 -17.75439453 7.11352539 C-11.95122844 1.75192662 -7.84854901 -0.03714957 0 0 Z " fill="#FDFEFD" transform="translate(332.75439453125,36.886474609375)"/>
<path d="M0 0 C1.20122246 -0.00087616 1.20122246 -0.00087616 2.42671204 -0.00177002 C5.05128624 0.00099782 7.67469858 0.03202672 10.29907227 0.06347656 C12.12752156 0.07094361 13.9559789 0.07663435 15.78443909 0.08062744 C20.58009211 0.09584729 25.375255 0.13509736 30.17071533 0.17944336 C35.07085542 0.22047506 39.97107526 0.23865529 44.87133789 0.25878906 C54.47380063 0.30159553 64.075772 0.37191525 73.67797852 0.45410156 C73.67797852 6.06410156 73.67797852 11.67410156 73.67797852 17.45410156 C70.27787476 17.49168579 70.27787476 17.49168579 66.80908203 17.5300293 C59.3371439 17.61333895 51.86527696 17.70204567 44.39343357 17.79344082 C39.86127265 17.84871078 35.32910533 17.90213715 30.796875 17.95141602 C26.42669304 17.99899967 22.05659203 18.05134004 17.68650627 18.10704231 C16.01549216 18.12749315 14.34445583 18.14620162 12.67340279 18.16317558 C10.34094291 18.18715949 8.00863745 18.21722177 5.67626953 18.2487793 C4.97855942 18.25453476 4.2808493 18.26029022 3.56199646 18.26622009 C0.34004828 18.04850792 0.34004828 18.04850792 -2.32202148 19.45410156 C-2.65202148 23.74410156 -2.98202148 28.03410156 -3.32202148 32.45410156 C22.08797852 32.45410156 47.49797852 32.45410156 73.67797852 32.45410156 C73.67797852 38.39410156 73.67797852 44.33410156 73.67797852 50.45410156 C48.26797852 50.45410156 22.85797852 50.45410156 -3.32202148 50.45410156 C-4.04354939 59.23527623 -4.04354939 59.23527623 -1.32202148 66.45410156 C1.01950693 66.57894311 3.33305437 66.64009447 5.67626953 66.65942383 C6.40793335 66.66932343 7.13959717 66.67922302 7.89343262 66.68942261 C10.32288324 66.7211254 12.75235345 66.74582949 15.18188477 66.77050781 C16.86197939 66.79106978 18.54206874 66.81206604 20.22215271 66.83348083 C24.65265655 66.88877982 29.08320767 66.93815443 33.51379395 66.98632812 C38.03145577 67.03648616 42.54904859 67.0922019 47.06665039 67.14746094 C55.93703645 67.25513819 64.80748084 67.35604843 73.67797852 67.45410156 C73.67797852 73.39410156 73.67797852 79.33410156 73.67797852 85.45410156 C63.25506971 85.54462656 52.83242386 85.61794655 42.40921021 85.66135025 C37.56880028 85.68218641 32.72867428 85.71043123 27.88842773 85.75585938 C23.21350327 85.79945915 18.53885117 85.82326852 13.86373901 85.83361053 C12.084012 85.8409766 10.30429916 85.85536078 8.52468872 85.87702179 C6.02337946 85.90624434 3.5231822 85.91004982 1.02172852 85.90820312 C0.2930809 85.92258423 -0.43556671 85.93696533 -1.18629456 85.95178223 C-7.46596097 85.90192295 -12.58009038 83.82020813 -17.34545898 79.70800781 C-17.79147461 79.14984375 -18.23749023 78.59167969 -18.69702148 78.01660156 C-19.15850586 77.46101563 -19.61999023 76.90542969 -20.09545898 76.33300781 C-22.63031421 72.44999709 -23.57229042 68.94125238 -23.59667969 64.33178711 C-23.6062117 63.33692795 -23.61574371 62.34206879 -23.62556458 61.31706238 C-23.62465317 60.2524025 -23.62374176 59.18774261 -23.62280273 58.09082031 C-23.62708786 56.98487015 -23.63137299 55.87891998 -23.63578796 54.73945618 C-23.64152478 52.40191328 -23.64203631 50.06435254 -23.63769531 47.72680664 C-23.6345421 44.16488874 -23.65798021 40.60380706 -23.68334961 37.04199219 C-23.68562345 34.76660261 -23.68632571 32.4912108 -23.68530273 30.21582031 C-23.69451248 29.15723312 -23.70372223 28.09864594 -23.71321106 27.00798035 C-23.65660449 17.8808696 -22.00645003 11.1385301 -15.32202148 4.45410156 C-10.13686942 0.9276971 -6.30483962 -0.12226447 0 0 Z " fill="#FEFEFE" transform="translate(625.322021484375,36.5458984375)"/>
<path d="M0 0 C7.92 0 15.84 0 24 0 C29.40365222 6.08333035 29.40365222 6.08333035 31.2578125 11.12579346 C32.49097052 14.23982168 34.27641834 17.04273276 36 19.90234375 C36.67034164 21.07016382 37.33700311 22.24010393 38 23.41210938 C38.33 23.99371826 38.66 24.57532715 39 25.17456055 C39.495 26.04721558 39.495 26.04721558 40 26.9375 C40.6664568 28.10884339 41.33312336 29.28006746 42 30.45117188 C43.32391718 32.77661595 44.64664309 35.10272389 45.96875 37.42919922 C49.30187572 43.29219187 52.65177789 49.14562027 56 55 C63.01344159 43.79483732 69.64249663 32.37430252 76.28564453 20.94677734 C78.78686525 16.6474703 81.29619398 12.35299289 83.8125 8.0625 C84.22677246 7.35319336 84.64104492 6.64388672 85.06787109 5.91308594 C87.884186 1.115814 87.884186 1.115814 89 0 C96.59 0 104.18 0 112 0 C112 28.05 112 56.1 112 85 C105.73 85 99.46 85 93 85 C92.505 56.29 92.505 56.29 92 27 C88.349375 33.868125 88.349375 33.868125 84.625 40.875 C78.53259585 52.31734698 72.34625678 63.69573011 66 75 C60.06 75 54.12 75 48 75 C47.22398437 73.618125 46.44796875 72.23625 45.6484375 70.8125 C44.55766544 68.87478955 43.46648706 66.93730779 42.375 65 C41.80048096 63.97938477 41.22596191 62.95876953 40.6340332 61.90722656 C37.47805075 56.31986468 34.28396136 50.75916473 31.01953125 45.234375 C30.37902832 44.14898437 29.73852539 43.06359375 29.07861328 41.9453125 C27.83130763 39.83780716 26.57849116 37.7335523 25.31982422 35.6328125 C24.75408691 34.67632812 24.18834961 33.71984375 23.60546875 32.734375 C23.10168701 31.89100586 22.59790527 31.04763672 22.07885742 30.17871094 C21 28 21 28 21 25 C20.34 25 19.68 25 19 25 C19 44.8 19 64.6 19 85 C12.73 85 6.46 85 0 85 C0 56.95 0 28.9 0 0 Z " fill="#FDFEFD" transform="translate(428,37)"/>
<path d="M0 0 C6.6 0 13.2 0 20 0 C20 28.71 20 57.42 20 87 C13.4 87 6.8 87 0 87 C0 58.29 0 29.58 0 0 Z " fill="#FBFDFB" transform="translate(561,36)"/>
<path d="M0 0 C1.31476318 -0.00630432 2.62952637 -0.01260864 3.98413086 -0.019104 C5.42561985 -0.01552433 6.86710762 -0.0114224 8.30859375 -0.00683594 C9.78068099 -0.00818261 11.2527678 -0.01012317 12.72485352 -0.01263428 C15.81172923 -0.01558543 18.89848928 -0.01128825 21.98535156 -0.00195312 C25.94681504 0.0094415 29.90800753 0.00288197 33.86946106 -0.00909805 C36.90972952 -0.01631694 39.94993348 -0.01402861 42.99020386 -0.00884247 C44.45108065 -0.00750605 45.91196325 -0.00915344 47.37283325 -0.01380157 C49.4126169 -0.018867 51.45242101 -0.00978073 53.4921875 0 C55.23520142 0.00238678 55.23520142 0.00238678 57.01342773 0.00482178 C59.74609375 0.25878906 59.74609375 0.25878906 61.74609375 2.25878906 C62.00488281 4.10644531 62.00488281 4.10644531 62.01171875 6.32128906 C62.01558594 7.51625 62.01558594 7.51625 62.01953125 8.73535156 C62.01179688 9.56808594 62.0040625 10.40082031 61.99609375 11.25878906 C62.00769531 12.50789063 62.00769531 12.50789063 62.01953125 13.78222656 C62.01695312 14.57886719 62.014375 15.37550781 62.01171875 16.19628906 C62.00946289 16.9271875 62.00720703 17.65808594 62.00488281 18.41113281 C61.74609375 20.25878906 61.74609375 20.25878906 59.74609375 22.25878906 C56.92404175 22.4992981 56.92404175 22.4992981 53.27685547 22.48583984 C52.61332062 22.4861319 51.94978577 22.48642395 51.2661438 22.48672485 C49.06922403 22.48532962 46.87264189 22.46975974 44.67578125 22.45410156 C43.15406479 22.45037211 41.63234594 22.44752482 40.11062622 22.44552612 C36.10253283 22.4378843 32.09458405 22.41823119 28.08654785 22.39611816 C23.99782263 22.3756715 19.90907409 22.36652694 15.8203125 22.35644531 C7.79550651 22.33498573 -0.22918189 22.30084327 -8.25390625 22.25878906 C-8.31180978 18.9671959 -8.34746886 15.67573303 -8.37890625 12.38378906 C-8.39566406 11.44664063 -8.41242188 10.50949219 -8.4296875 9.54394531 C-8.43935547 8.20009766 -8.43935547 8.20009766 -8.44921875 6.82910156 C-8.45969238 6.00168457 -8.47016602 5.17426758 -8.48095703 4.32177734 C-7.92809625 -0.70152764 -4.09713741 0.00561038 0 0 Z " fill="#309241" transform="translate(209.25390625,54.7412109375)"/>
<path d="M0 0 C0.65042267 -0.00335861 1.30084534 -0.00671722 1.97097778 -0.01017761 C4.13114304 -0.01971301 6.291231 -0.02163202 8.45141602 -0.02270508 C9.94735242 -0.0259159 11.44328851 -0.02927984 12.93922424 -0.03279114 C16.07911914 -0.03878892 19.21898649 -0.04063038 22.35888672 -0.04003906 C26.38873909 -0.03993741 30.41841537 -0.05358965 34.44822598 -0.07081127 C37.53909624 -0.08191236 40.62992368 -0.08395886 43.72081184 -0.08342934 C45.20681426 -0.08461231 46.69281769 -0.08905179 48.17880058 -0.0967617 C50.25474362 -0.10652359 52.33030119 -0.10369891 54.40625 -0.09765625 C55.58904037 -0.09908127 56.77183075 -0.10050629 57.99046326 -0.10197449 C60.76782227 0.14526367 60.76782227 0.14526367 62.76782227 2.14526367 C63.01074219 4.00878906 63.01074219 4.00878906 62.99829102 6.24291992 C62.99635742 7.04407227 62.99442383 7.84522461 62.99243164 8.6706543 C62.98018555 9.50790039 62.96793945 10.34514648 62.95532227 11.20776367 C62.95435547 12.46943359 62.95435547 12.46943359 62.95336914 13.7565918 C62.9080541 20.00503183 62.9080541 20.00503183 61.76782227 21.14526367 C59.62038678 21.23951962 57.46981201 21.26269015 55.3203125 21.25878906 C54.31059891 21.2590081 54.31059891 21.2590081 53.28048706 21.25923157 C51.04576442 21.25853246 48.81112417 21.25074019 46.57641602 21.24291992 C45.03084865 21.24105573 43.48528069 21.23963184 41.93971252 21.2386322 C37.8642515 21.23480707 33.7888259 21.22497684 29.71337891 21.21392822 C25.55770344 21.20371399 21.40202228 21.19913456 17.24633789 21.1940918 C9.08681639 21.18335456 0.92732373 21.16627821 -7.23217773 21.14526367 C-7.2610592 17.8327818 -7.27893573 14.520332 -7.29467773 11.20776367 C-7.30305664 10.26223633 -7.31143555 9.31670898 -7.32006836 8.3425293 C-7.32329102 7.4434082 -7.32651367 6.54428711 -7.32983398 5.61791992 C-7.3350708 4.78526611 -7.34030762 3.9526123 -7.34570312 3.09472656 C-7.09481138 -1.21359732 -3.54758242 0.01144055 0 0 Z " fill="#2B903C" transform="translate(81.232177734375,54.854736328125)"/>
<path d="M0 0 C1.31483871 -0.00315216 2.62967743 -0.00630432 3.98435974 -0.009552 C5.43106113 -0.00776204 6.87776221 -0.00571104 8.32446289 -0.00341797 C9.79797888 -0.00409111 11.27149477 -0.00506122 12.74501038 -0.00631714 C15.83783014 -0.0077941 18.93062108 -0.00563992 22.0234375 -0.00097656 C25.99270649 0.00471575 29.96190779 0.00144488 33.93117428 -0.00454903 C36.9757183 -0.00815894 40.02024622 -0.00701398 43.06479073 -0.00442123 C44.52845836 -0.0037529 45.99212744 -0.00457714 47.45579338 -0.00690079 C49.50047656 -0.00943375 51.54516485 -0.00489014 53.58984375 0 C54.75486923 0.00079559 55.91989471 0.00159119 57.120224 0.00241089 C59.85961914 0.12939453 59.85961914 0.12939453 61.85961914 1.12939453 C61.88850428 4.27520876 61.90637837 7.42098922 61.92211914 10.56689453 C61.93049805 11.46472656 61.93887695 12.36255859 61.94750977 13.28759766 C61.95073242 14.14160156 61.95395508 14.99560547 61.95727539 15.87548828 C61.96251221 16.66624756 61.96774902 17.45700684 61.97314453 18.27172852 C61.85961914 20.12939453 61.85961914 20.12939453 60.85961914 21.12939453 C58.74280597 21.22361194 56.62281156 21.24682214 54.50390625 21.24291992 C53.84051743 21.24306595 53.1771286 21.24321198 52.49363708 21.24336243 C50.29137959 21.24266334 48.08920569 21.23487118 45.88696289 21.22705078 C44.36381578 21.22518659 42.84066807 21.22376269 41.31752014 21.22276306 C37.30124263 21.21893799 33.28500106 21.20910781 29.26873779 21.19805908 C25.17338548 21.18784472 21.07802738 21.18326539 16.98266602 21.17822266 C8.94163386 21.16748553 0.90063097 21.15040925 -7.14038086 21.12939453 C-7.16926232 17.81691266 -7.18713885 14.50446286 -7.20288086 11.19189453 C-7.21125977 10.24636719 -7.21963867 9.30083984 -7.22827148 8.32666016 C-7.23149414 7.42753906 -7.2347168 6.52841797 -7.23803711 5.60205078 C-7.24327393 4.76939697 -7.24851074 3.93674316 -7.25390625 3.07885742 C-7.00433326 -1.20682071 -3.53603792 0.0024164 0 0 Z " fill="#2B903C" transform="translate(746.140380859375,54.87060546875)"/>
<path d="M0 0 C3.63 0 7.26 0 11 0 C9.68 0.99 8.36 1.98 7 3 C4.28605595 5.54946259 2.26183654 7.98421795 0 11 C0 7.37 0 3.74 0 0 Z " fill="#FFFFFF" transform="translate(0,0)"/>
<path d="M0 0 C0.33 0 0.66 0 1 0 C1 3.63 1 7.26 1 11 C-2.63 11 -6.26 11 -10 11 C-8.68 10.01 -7.36 9.02 -6 8 C-2.18639116 4.53745431 -2.18639116 4.53745431 0 0 Z " fill="#FFFFFF" transform="translate(999,148)"/>
<path d="M0 0 C0.99 1.32 1.98 2.64 3 4 C5.57483343 6.7035751 7.88872809 8.92581873 11 11 C7.37 11 3.74 11 0 11 C0 7.37 0 3.74 0 0 Z " fill="#FFFFFF" transform="translate(0,148)"/>
<path d="M0 0 C3.63 0 7.26 0 11 0 C11 3.63 11 7.26 11 11 C10.01 9.68 9.02 8.36 8 7 C5.42516657 4.2964249 3.11127191 2.07418127 0 0 Z " fill="#FFFFFF" transform="translate(989,0)"/>
</svg>
