<svg version="1.1" id="Layer_1" xmlns="http://www.w3.org/2000/svg" xmlns:xlink="http://www.w3.org/1999/xlink" x="0px" y="0px"
	 width="100%" viewBox="0 0 1000 265" enable-background="new 0 0 1000 265" xml:space="preserve">
<path fill="#FFFFFF" opacity="1.000000" stroke="none" 
	d="
M1001.000000,49.000008 
	C1001.000000,121.301392 1001.000000,193.602783 1001.000000,266.000000 
	C743.312439,266.000000 485.624878,266.000000 227.468658,265.531342 
	C227.000000,242.852188 227.000000,220.641708 227.000000,198.118286 
	C230.690094,201.013779 233.624023,203.936951 237.091934,205.931839 
	C253.995026,215.655304 272.086487,218.437943 291.313293,215.065521 
	C316.966156,210.565964 334.999115,195.645630 346.703003,173.310959 
	C355.678558,156.182831 358.736572,137.568680 356.163086,118.005737 
	C354.516266,105.486954 351.350311,93.711227 344.974121,82.845169 
	C332.112793,60.927387 313.803406,46.835415 288.180023,42.923359 
	C270.063965,40.157478 253.200485,42.889164 238.081665,53.536598 
	C233.504669,56.759972 229.568893,60.893826 224.749786,65.128799 
	C224.749786,58.302792 224.749786,52.228008 224.749786,46.322830 
	C208.293640,46.322830 192.227951,46.322830 176.000000,46.322830 
	C176.000000,119.763687 176.000000,192.881836 176.000000,266.000000 
	C117.779289,266.000000 59.558582,266.000000 1.000000,266.000000 
	C1.000000,248.980591 1.000000,231.958954 1.468657,214.468658 
	C28.884518,214.000000 55.832161,213.926178 82.778404,214.087219 
	C86.416664,214.108978 88.279160,212.951035 89.039383,209.505981 
	C89.312752,208.267166 90.041138,207.131516 90.538200,205.938904 
	C95.375893,194.331772 100.208565,182.722549 105.331711,170.989807 
	C105.413521,170.299301 105.206291,169.732925 104.535599,169.093155 
	C76.043098,169.068726 48.014076,169.117691 19.725729,169.129990 
	C19.366495,169.389542 19.266579,169.685745 19.008064,170.323227 
	C13.787462,182.702667 8.758399,194.754990 3.600130,206.751770 
	C3.192940,207.698761 1.887810,208.259659 0.999997,209.000000 
	C1.000000,177.312439 1.000000,145.624878 1.361220,113.568451 
	C2.149463,114.042068 2.718519,114.842682 2.981196,115.733620 
	C5.223917,123.340439 8.941628,130.211060 14.966353,135.303635 
	C22.830441,141.950974 32.221687,146.212662 42.297302,147.862793 
	C59.621658,150.700134 77.080818,152.727066 94.498665,154.975891 
	C104.104759,156.216141 107.111885,157.364105 107.297485,168.000000 
	C115.908684,168.000000 124.534485,168.000000 133.160278,168.000000 
	C141.742859,168.000000 150.325439,168.000000 159.000000,168.000000 
	C159.000000,165.808273 158.988708,164.314392 159.001663,162.820709 
	C159.239105,135.449219 146.104782,121.204918 122.877625,113.122910 
	C108.347343,108.067032 92.930695,107.518181 77.744461,105.958755 
	C70.322357,105.196609 62.875347,104.325226 55.595924,102.771118 
	C53.761108,102.379387 51.243832,99.097084 51.351524,97.280121 
	C51.477776,95.150108 53.725319,92.377693 55.787525,91.329453 
	C58.238976,90.083351 61.470402,90.064850 64.366570,90.050179 
	C83.524872,89.953140 102.684776,89.907005 121.841866,90.087654 
	C125.200996,90.119331 126.834389,89.002266 128.056000,85.999641 
	C131.081909,78.562195 134.431992,71.257309 137.590622,63.872978 
	C140.164520,57.855652 142.649796,51.800423 145.074860,46.000000 
	C142.766113,46.000000 140.708160,45.980434 138.650681,46.002941 
	C108.581337,46.331867 78.447037,45.587898 48.466606,47.395245 
	C29.828039,48.518852 14.891740,58.598499 6.009995,75.954926 
	C4.305567,79.285667 2.668269,82.650757 1.000000,86.000000 
	C1.000000,57.682522 1.000000,29.365042 1.000000,1.000000 
	C233.020889,1.000000 465.041779,1.000000 697.531372,1.468657 
	C698.000000,49.763462 697.923157,97.589874 698.088318,145.415451 
	C698.111328,152.080215 698.922302,158.810715 700.062378,165.390564 
	C703.783264,186.866013 716.684631,200.663544 736.854065,207.991791 
	C746.403442,211.461395 756.284119,212.986496 766.491333,213.084503 
	C777.190063,213.187241 787.882385,213.960785 798.781433,214.450302 
	C798.781433,198.512543 798.781433,183.444595 798.781433,168.468719 
	C789.683960,167.970993 780.813904,167.401031 771.935669,167.022583 
	C762.087219,166.602783 752.331787,160.753906 751.003235,151.534195 
	C750.029541,144.777069 749.243774,137.944153 749.086426,131.128571 
	C748.787842,118.194962 749.000000,105.249557 749.000000,91.999969 
	C760.461060,91.999969 771.426147,91.967064 782.390747,92.024864 
	C784.892151,92.038048 786.203796,91.672592 787.306030,88.710724 
	C790.384583,80.437843 794.413147,72.523506 797.891541,64.392715 
	C800.429749,58.459595 802.690369,52.407673 805.313721,45.807343 
	C786.073486,45.807343 767.651672,45.807343 749.000000,45.807343 
	C749.000000,30.615984 749.000000,15.807992 749.000000,1.000000 
	C832.876099,1.000000 916.752197,1.000000 1001.000000,1.000000 
	C1001.000000,15.685471 1001.000000,30.374077 1000.531372,45.531342 
	C982.397827,46.000004 964.732483,46.062222 947.068481,45.939907 
	C944.058960,45.919071 942.130981,46.600964 941.039062,49.629284 
	C931.401978,76.355652 921.701660,103.059303 911.965759,129.749863 
	C910.448181,133.910172 908.656677,137.970596 906.697021,142.804535 
	C905.494507,140.715561 904.562866,139.537964 904.082764,138.198502 
	C893.575684,108.886192 883.036621,79.584625 872.759399,50.191578 
	C871.520081,46.647038 869.803528,45.895538 866.403259,45.927959 
	C849.739990,46.086823 833.074280,45.994408 816.409485,46.009987 
	C814.985291,46.011318 813.561218,46.153439 811.747070,46.251163 
	C812.186157,47.544197 812.432129,48.449612 812.793823,49.306141 
	C817.483337,60.409977 822.253235,71.480347 826.877380,82.611275 
	C835.562927,103.518745 844.101501,124.487343 852.822083,145.380066 
	C861.795410,166.878250 871.056335,188.258072 879.816650,209.841766 
	C881.170410,213.177109 882.725891,214.051453 885.868958,214.032394 
	C898.700439,213.954681 911.536194,213.832184 924.362488,214.100555 
	C928.295349,214.182831 930.504211,212.778519 931.955139,209.366974 
	C938.934082,192.957077 945.985352,176.577911 952.959167,160.165833 
	C960.245300,143.018646 967.483765,125.851189 974.721741,108.683609 
	C980.836121,94.181023 986.829102,79.626366 993.063538,65.175774 
	C995.439819,59.667709 998.339111,54.385269 1001.000000,49.000008 
M474.159546,42.002731 
	C465.082916,42.345680 455.762115,41.484325 446.977142,43.265617 
	C423.970490,47.930595 404.497650,58.809006 390.158081,78.206108 
	C374.141083,99.872383 369.550812,123.825493 375.437469,149.625946 
	C380.088470,170.010742 391.420471,186.324387 408.350494,199.010696 
	C430.967010,215.958160 456.467285,220.246780 483.311035,215.571091 
	C504.534454,211.874374 522.567383,201.278992 536.509766,184.134933 
	C548.027405,169.972321 554.631897,153.901062 555.846924,135.958832 
	C557.272095,114.913498 552.078003,95.530373 539.122742,78.313980 
	C526.959167,62.149723 511.459412,51.279327 492.013397,46.001087 
	C486.426025,44.484509 480.735962,43.346264 474.159546,42.002731 
M624.000000,160.500000 
	C624.333374,149.248550 624.225342,137.961166 625.137451,126.756828 
	C625.889038,117.524025 629.537537,109.034058 636.748596,102.908852 
	C645.561218,95.423271 656.133057,92.122826 667.678162,92.007843 
	C672.429993,91.960510 677.182617,92.000000 681.631775,92.000000 
	C681.631775,76.541855 681.631775,61.804478 681.631775,47.445126 
	C658.503113,44.905285 637.918518,48.643391 622.849487,70.155617 
	C622.849487,61.046700 622.849487,53.651855 622.849487,46.280876 
	C606.385193,46.280876 590.317139,46.280876 574.281372,46.280876 
	C574.281372,102.291336 574.281372,158.020462 574.281372,213.710388 
	C590.965881,213.710388 607.367371,213.710388 624.000000,213.710388 
	C624.000000,196.114532 624.000000,178.807266 624.000000,160.500000 
z"/>
<path fill="#09043E" opacity="1.000000" stroke="none" 
	d="
M176.468658,266.000000 
	C176.000000,192.881836 176.000000,119.763687 176.000000,46.322830 
	C192.227951,46.322830 208.293640,46.322830 224.749786,46.322830 
	C224.749786,52.228008 224.749786,58.302792 224.749786,65.128799 
	C229.568893,60.893826 233.504669,56.759972 238.081665,53.536598 
	C253.200485,42.889164 270.063965,40.157478 288.180023,42.923359 
	C313.803406,46.835415 332.112793,60.927387 344.974121,82.845169 
	C351.350311,93.711227 354.516266,105.486954 356.163086,118.005737 
	C358.736572,137.568680 355.678558,156.182831 346.703003,173.310959 
	C334.999115,195.645630 316.966156,210.565964 291.313293,215.065521 
	C272.086487,218.437943 253.995026,215.655304 237.091934,205.931839 
	C233.624023,203.936951 230.690094,201.013779 227.000000,198.118286 
	C227.000000,220.641708 227.000000,242.852188 227.000000,265.531342 
	C210.312439,266.000000 193.624878,266.000000 176.468658,266.000000 
M228.914307,149.437027 
	C232.931351,154.290268 236.279617,159.991592 241.116150,163.805634 
	C249.145920,170.137787 258.729553,172.021774 269.185211,171.184784 
	C278.914032,170.405991 287.201569,166.986313 293.933960,160.406036 
	C304.157043,150.413879 307.700470,138.069611 306.105652,123.745285 
	C303.148193,97.181480 279.887054,84.106789 255.859833,88.651711 
	C243.998413,90.895378 234.668610,97.527000 229.618988,108.290993 
	C226.422348,115.105103 224.700272,123.075027 224.361084,130.618484 
	C224.090607,136.633896 226.910858,142.788300 228.914307,149.437027 
z"/>
<path fill="#09043E" opacity="1.000000" stroke="none" 
	d="
M1001.000000,48.625008 
	C998.339111,54.385269 995.439819,59.667709 993.063538,65.175774 
	C986.829102,79.626366 980.836121,94.181023 974.721741,108.683609 
	C967.483765,125.851189 960.245300,143.018646 952.959167,160.165833 
	C945.985352,176.577911 938.934082,192.957077 931.955139,209.366974 
	C930.504211,212.778519 928.295349,214.182831 924.362488,214.100555 
	C911.536194,213.832184 898.700439,213.954681 885.868958,214.032394 
	C882.725891,214.051453 881.170410,213.177109 879.816650,209.841766 
	C871.056335,188.258072 861.795410,166.878250 852.822083,145.380066 
	C844.101501,124.487343 835.562927,103.518745 826.877380,82.611275 
	C822.253235,71.480347 817.483337,60.409977 812.793823,49.306141 
	C812.432129,48.449612 812.186157,47.544197 811.747070,46.251163 
	C813.561218,46.153439 814.985291,46.011318 816.409485,46.009987 
	C833.074280,45.994408 849.739990,46.086823 866.403259,45.927959 
	C869.803528,45.895538 871.520081,46.647038 872.759399,50.191578 
	C883.036621,79.584625 893.575684,108.886192 904.082764,138.198502 
	C904.562866,139.537964 905.494507,140.715561 906.697021,142.804535 
	C908.656677,137.970596 910.448181,133.910172 911.965759,129.749863 
	C921.701660,103.059303 931.401978,76.355652 941.039062,49.629284 
	C942.130981,46.600964 944.058960,45.919071 947.068481,45.939907 
	C964.732483,46.062222 982.397827,46.000004 1000.531372,46.000000 
	C1001.000000,46.750000 1001.000000,47.500000 1001.000000,48.625008 
z"/>
<path fill="#09043E" opacity="1.000000" stroke="none" 
	d="
M748.531372,1.000000 
	C749.000000,15.807992 749.000000,30.615984 749.000000,45.807343 
	C767.651672,45.807343 786.073486,45.807343 805.313721,45.807343 
	C802.690369,52.407673 800.429749,58.459595 797.891541,64.392715 
	C794.413147,72.523506 790.384583,80.437843 787.306030,88.710724 
	C786.203796,91.672592 784.892151,92.038048 782.390747,92.024864 
	C771.426147,91.967064 760.461060,91.999969 749.000000,91.999969 
	C749.000000,105.249557 748.787842,118.194962 749.086426,131.128571 
	C749.243774,137.944153 750.029541,144.777069 751.003235,151.534195 
	C752.331787,160.753906 762.087219,166.602783 771.935669,167.022583 
	C780.813904,167.401031 789.683960,167.970993 798.781433,168.468719 
	C798.781433,183.444595 798.781433,198.512543 798.781433,214.450302 
	C787.882385,213.960785 777.190063,213.187241 766.491333,213.084503 
	C756.284119,212.986496 746.403442,211.461395 736.854065,207.991791 
	C716.684631,200.663544 703.783264,186.866013 700.062378,165.390564 
	C698.922302,158.810715 698.111328,152.080215 698.088318,145.415451 
	C697.923157,97.589874 698.000000,49.763462 698.000000,1.468657 
	C714.687561,1.000000 731.375122,1.000000 748.531372,1.000000 
z"/>
<path fill="#09043E" opacity="1.000000" stroke="none" 
	d="
M1.000000,86.468658 
	C2.668269,82.650757 4.305567,79.285667 6.009995,75.954926 
	C14.891740,58.598499 29.828039,48.518852 48.466606,47.395245 
	C78.447037,45.587898 108.581337,46.331867 138.650681,46.002941 
	C140.708160,45.980434 142.766113,46.000000 145.074860,46.000000 
	C142.649796,51.800423 140.164520,57.855652 137.590622,63.872978 
	C134.431992,71.257309 131.081909,78.562195 128.056000,85.999641 
	C126.834389,89.002266 125.200996,90.119331 121.841866,90.087654 
	C102.684776,89.907005 83.524872,89.953140 64.366570,90.050179 
	C61.470402,90.064850 58.238976,90.083351 55.787525,91.329453 
	C53.725319,92.377693 51.477776,95.150108 51.351524,97.280121 
	C51.243832,99.097084 53.761108,102.379387 55.595924,102.771118 
	C62.875347,104.325226 70.322357,105.196609 77.744461,105.958755 
	C92.930695,107.518181 108.347343,108.067032 122.877625,113.122910 
	C146.104782,121.204918 159.239105,135.449219 159.001663,162.820709 
	C158.988708,164.314392 159.000000,165.808273 159.000000,168.000000 
	C150.325439,168.000000 141.742859,168.000000 133.160278,168.000000 
	C124.534485,168.000000 115.908684,168.000000 107.297485,168.000000 
	C107.111885,157.364105 104.104759,156.216141 94.498665,154.975891 
	C77.080818,152.727066 59.621658,150.700134 42.297302,147.862793 
	C32.221687,146.212662 22.830441,141.950974 14.966353,135.303635 
	C8.941628,130.211060 5.223917,123.340439 2.981196,115.733620 
	C2.718519,114.842682 2.149463,114.042068 1.361220,113.099792 
	C1.000000,104.312439 1.000000,95.624870 1.000000,86.468658 
z"/>
<path fill="#FF0930" opacity="1.000000" stroke="none" 
	d="
M19.985048,169.166656 
	C48.014076,169.117691 76.043098,169.068726 104.537148,169.417755 
	C105.015671,170.248489 105.029167,170.681198 105.042664,171.113922 
	C100.208565,182.722549 95.375893,194.331772 90.538200,205.938904 
	C90.041138,207.131516 89.312752,208.267166 89.039383,209.505981 
	C88.279160,212.951035 86.416664,214.108978 82.778404,214.087219 
	C55.832161,213.926178 28.884518,214.000000 1.468657,214.000000 
	C1.000000,212.611115 1.000000,211.222214 0.999997,209.416656 
	C1.887810,208.259659 3.192940,207.698761 3.600130,206.751770 
	C8.758399,194.754990 13.787462,182.702667 19.184143,170.231415 
	C19.738037,169.634872 19.893446,169.424316 19.985048,169.166656 
z"/>
<path fill="#09043E" opacity="1.000000" stroke="none" 
	d="
M474.626282,42.018646 
	C480.735962,43.346264 486.426025,44.484509 492.013397,46.001087 
	C511.459412,51.279327 526.959167,62.149723 539.122742,78.313980 
	C552.078003,95.530373 557.272095,114.913498 555.846924,135.958832 
	C554.631897,153.901062 548.027405,169.972321 536.509766,184.134933 
	C522.567383,201.278992 504.534454,211.874374 483.311035,215.571091 
	C456.467285,220.246780 430.967010,215.958160 408.350494,199.010696 
	C391.420471,186.324387 380.088470,170.010742 375.437469,149.625946 
	C369.550812,123.825493 374.141083,99.872383 390.158081,78.206108 
	C404.497650,58.809006 423.970490,47.930595 446.977142,43.265617 
	C455.762115,41.484325 465.082916,42.345680 474.626282,42.018646 
M448.046661,91.443001 
	C443.376801,94.519585 437.863129,96.825546 434.207550,100.828423 
	C425.832184,109.999496 422.767944,121.169937 423.882904,133.760605 
	C425.033203,146.750092 430.737000,156.675049 441.307434,164.038391 
	C451.738037,171.304337 463.353455,172.599335 475.275330,169.729233 
	C483.311096,167.794693 490.647522,163.991974 496.028595,157.115173 
	C504.405640,146.409637 507.365936,134.484131 505.003265,121.154388 
	C503.363922,111.905563 499.310547,103.668060 492.115540,97.851059 
	C479.182892,87.395195 464.444366,85.406197 448.046661,91.443001 
z"/>
<path fill="#09043E" opacity="1.000000" stroke="none" 
	d="
M624.000000,161.000000 
	C624.000000,178.807266 624.000000,196.114532 624.000000,213.710388 
	C607.367371,213.710388 590.965881,213.710388 574.281372,213.710388 
	C574.281372,158.020462 574.281372,102.291336 574.281372,46.280876 
	C590.317139,46.280876 606.385193,46.280876 622.849487,46.280876 
	C622.849487,53.651855 622.849487,61.046700 622.849487,70.155617 
	C637.918518,48.643391 658.503113,44.905285 681.631775,47.445126 
	C681.631775,61.804478 681.631775,76.541855 681.631775,92.000000 
	C677.182617,92.000000 672.429993,91.960510 667.678162,92.007843 
	C656.133057,92.122826 645.561218,95.423271 636.748596,102.908852 
	C629.537537,109.034058 625.889038,117.524025 625.137451,126.756828 
	C624.225342,137.961166 624.333374,149.248550 624.000000,161.000000 
z"/>
<path fill="#FF0930" opacity="1.000000" stroke="none" 
	d="
M105.331703,170.989807 
	C105.029167,170.681198 105.015671,170.248489 105.000618,169.491150 
	C105.206291,169.732925 105.413521,170.299301 105.331703,170.989807 
z"/>
<path fill="#FF0930" opacity="1.000000" stroke="none" 
	d="
M19.725729,169.129990 
	C19.893446,169.424316 19.738037,169.634872 19.342739,169.890152 
	C19.266579,169.685745 19.366495,169.389542 19.725729,169.129990 
z"/>
<path fill="#FFFFFF" opacity="1.000000" stroke="none" 
	d="
M228.636719,149.159012 
	C226.910858,142.788300 224.090607,136.633896 224.361084,130.618484 
	C224.700272,123.075027 226.422348,115.105103 229.618988,108.290993 
	C234.668610,97.527000 243.998413,90.895378 255.859833,88.651711 
	C279.887054,84.106789 303.148193,97.181480 306.105652,123.745285 
	C307.700470,138.069611 304.157043,150.413879 293.933960,160.406036 
	C287.201569,166.986313 278.914032,170.405991 269.185211,171.184784 
	C258.729553,172.021774 249.145920,170.137787 241.116150,163.805634 
	C236.279617,159.991592 232.931351,154.290268 228.636719,149.159012 
z"/>
<path fill="#FFFFFF" opacity="1.000000" stroke="none" 
	d="
M448.394897,91.235962 
	C464.444366,85.406197 479.182892,87.395195 492.115540,97.851059 
	C499.310547,103.668060 503.363922,111.905563 505.003265,121.154388 
	C507.365936,134.484131 504.405640,146.409637 496.028595,157.115173 
	C490.647522,163.991974 483.311096,167.794693 475.275330,169.729233 
	C463.353455,172.599335 451.738037,171.304337 441.307434,164.038391 
	C430.737000,156.675049 425.033203,146.750092 423.882904,133.760605 
	C422.767944,121.169937 425.832184,109.999496 434.207550,100.828423 
	C437.863129,96.825546 443.376801,94.519585 448.394897,91.235962 
z"/>
</svg>