<svg version="1.1" id="Layer_1" xmlns="http://www.w3.org/2000/svg" xmlns:xlink="http://www.w3.org/1999/xlink" x="0px" y="0px"
	 width="100%" viewBox="0 0 1000 145" enable-background="new 0 0 1000 145" xml:space="preserve">
<path fill="#D22C29" opacity="1.000000" stroke="none" 
	d="
M722.000000,1.000000 
	C725.030579,1.000000 728.061218,1.000000 731.701294,1.367354 
	C735.429077,2.523605 738.655029,3.026559 741.646790,4.151983 
	C753.269836,8.524258 761.583801,16.432903 762.657532,29.097006 
	C764.448730,50.223175 756.521423,72.330841 732.506714,81.988396 
	C726.818054,84.276077 725.224976,87.889435 725.961182,93.457832 
	C726.434448,97.037437 726.531921,100.665619 726.837891,104.268623 
	C727.877747,116.514153 729.023254,128.752045 729.879822,141.010193 
	C729.992432,142.621796 728.661987,144.334244 728.000000,146.000000 
	C724.969421,146.000000 721.938782,146.000000 718.368774,145.601105 
	C711.393616,145.007507 704.958069,144.802414 698.520935,144.676575 
	C698.356018,144.673340 698.174011,145.539368 698.000000,146.000000 
	C694.969421,146.000000 691.938782,146.000000 688.439575,145.625214 
	C687.058777,143.429779 685.468018,141.652573 685.348206,139.781174 
	C684.722534,130.010925 684.500977,120.215446 684.075745,110.431480 
	C683.859558,105.458183 683.655090,100.475105 683.122620,95.531189 
	C682.986572,94.268608 681.660767,92.150513 680.815613,92.117561 
	C677.075684,91.971741 673.026978,91.696335 669.665894,92.977928 
	C667.734070,93.714561 666.832397,97.299576 665.601196,99.672020 
	C664.872986,101.075218 664.318115,102.586021 663.836548,104.096664 
	C661.031189,112.896919 658.547119,121.812027 655.393127,130.484177 
	C653.443970,135.843506 650.498291,140.840393 648.000000,146.000000 
	C644.307068,146.000000 640.614197,146.000000 636.372498,145.603363 
	C631.501526,144.824860 627.183167,144.364212 622.852600,144.154053 
	C622.266357,144.125595 621.619080,145.353729 621.000000,146.000000 
	C617.307068,146.000000 613.614197,146.000000 609.421875,145.675064 
	C608.678040,143.883698 607.857788,142.222733 608.277405,140.980606 
	C613.015747,126.952858 617.968445,112.997696 622.816589,99.006760 
	C630.615906,76.499237 638.261536,53.937561 646.212158,31.483761 
	C649.846985,21.218241 654.053040,11.154992 658.000000,1.000008 
	C660.700012,1.000000 663.400024,1.000000 666.759399,1.380063 
	C684.936523,1.834692 702.454224,1.920320 719.971985,1.941923 
	C720.647583,1.942756 721.323975,1.327940 722.000000,1.000000 
M682.362915,49.933777 
	C681.304626,53.194702 680.246338,56.455627 679.089722,60.019489 
	C685.749817,60.019489 692.085266,60.432499 698.345154,59.920818 
	C707.301208,59.188755 715.184082,56.330311 718.131836,46.456135 
	C719.463928,41.993870 718.109253,36.587669 713.873962,35.853378 
	C705.659485,34.429188 697.182617,34.518299 688.814514,33.980370 
	C687.079041,38.122700 685.326355,42.257969 683.621643,46.412907 
	C683.249329,47.320320 683.048462,48.298027 682.362915,49.933777 
z"/>
<path fill="#FFFFFF" opacity="1.000000" stroke="none" 
	d="
M164.000000,1.000000 
	C203.020889,1.000000 242.041794,1.000000 281.373352,1.369473 
	C273.352051,4.779523 264.388153,6.724518 256.820190,11.089664 
	C241.259125,20.065172 232.507568,34.393002 231.233887,52.296391 
	C230.068741,68.673927 237.144760,75.781136 252.150452,82.720764 
	C261.839752,87.201729 271.927979,90.821236 281.607422,95.321472 
	C283.649780,96.271019 285.887878,99.381218 285.881256,101.489098 
	C285.873383,104.007416 284.191833,107.460556 282.120026,108.873360 
	C271.905273,115.839035 255.394073,111.463730 249.048309,100.841499 
	C248.094849,99.245506 245.397491,97.414467 243.826630,97.668617 
	C232.484482,99.503761 221.205887,101.757629 209.953705,104.102150 
	C207.527924,104.607597 204.021988,105.842514 205.261444,109.001190 
	C207.706894,115.233162 210.077423,121.956482 214.294708,126.940056 
	C224.745743,139.290009 239.085220,144.240402 255.011292,145.283539 
	C255.037903,145.521866 255.000000,146.000000 255.000000,146.000000 
	C225.312439,146.000000 195.624878,146.000000 165.418732,145.664825 
	C164.850327,145.109299 164.800491,144.888947 164.956512,144.410217 
	C163.119766,139.711823 161.302048,135.151093 158.995483,130.852722 
	C149.140457,112.487434 139.108765,94.216911 129.270493,75.842758 
	C128.645142,74.674835 128.663132,72.745415 129.159760,71.474144 
	C130.498871,68.046257 132.101318,64.696114 133.877777,61.468399 
	C143.802078,43.436508 153.746262,25.414663 163.862122,7.490110 
	C165.214111,5.094469 165.454269,3.199598 164.000000,1.000000 
z"/>
<path fill="#D22C29" opacity="1.000000" stroke="none" 
	d="
M576.000000,1.000006 
	C576.000000,1.000000 576.500000,1.000000 576.901001,1.362975 
	C594.636536,4.819561 607.242920,14.088448 613.589661,30.690254 
	C618.586731,43.761898 617.996216,57.361805 614.429199,70.603493 
	C608.231201,93.611786 595.879272,113.026077 577.745544,128.497314 
	C566.648560,137.964951 553.942444,144.251083 538.740112,144.739136 
	C532.970337,144.627304 527.479248,144.831100 521.571106,145.020721 
	C519.235657,144.661362 517.272522,144.474442 515.406067,143.946060 
	C500.066681,139.603592 488.185913,131.052872 482.084137,115.823341 
	C476.627350,102.203613 479.221527,88.249962 482.533722,74.978409 
	C488.858643,49.635082 503.153931,29.236589 524.889038,14.315271 
	C534.046997,8.028213 543.639526,2.892721 555.247314,2.220210 
	C561.588440,2.686914 567.646973,2.910351 573.705078,2.898843 
	C574.471313,2.897387 575.235107,1.663116 576.000000,1.000006 
M526.308228,83.058868 
	C525.508972,88.085152 524.027954,93.125839 524.133728,98.133003 
	C524.213379,101.903481 525.226562,106.857803 527.758423,109.128975 
	C533.496338,114.276268 546.530457,111.920006 550.974121,105.735214 
	C562.975952,89.030731 570.000977,70.186211 573.709351,50.135773 
	C575.699585,39.374786 565.691895,33.424568 557.551575,35.167789 
	C551.427673,36.479210 546.527588,39.817581 542.765869,45.123104 
	C534.748901,56.430351 531.079407,69.515022 526.308228,83.058868 
z"/>
<path fill="#D22C2A" opacity="1.000000" stroke="none" 
	d="
M935.000000,1.000000 
	C943.687561,1.000000 952.375183,1.000000 961.668823,1.377125 
	C977.329834,4.037663 989.568665,10.772503 997.728821,24.049757 
	C998.615173,25.491899 999.899963,26.689175 1001.000000,28.000008 
	C1001.000000,30.370558 1001.000000,32.741116 1000.644287,35.624825 
	C998.763000,37.051411 997.344910,38.385902 995.693726,38.807663 
	C987.117920,40.998093 978.385864,42.627537 969.907654,45.128403 
	C965.448425,46.443768 962.755249,45.367794 961.204773,41.416428 
	C958.127258,33.573093 942.485779,30.742094 935.478516,35.010536 
	C931.878967,37.203148 930.888245,40.454105 931.771545,43.911552 
	C932.255859,45.807354 934.477661,47.628342 936.360291,48.709431 
	C939.041626,50.249222 942.167419,50.993511 945.040039,52.225361 
	C956.962524,57.338051 969.456238,61.068638 978.818909,71.203728 
	C986.448975,79.463150 988.326660,88.665771 986.211487,98.916847 
	C984.209351,108.620018 978.765015,116.584740 971.846375,123.686531 
	C959.224609,136.642639 944.142456,144.042313 925.727173,144.717026 
	C918.958313,144.617859 912.472229,144.829681 905.555115,145.024643 
	C898.169983,143.312653 890.921997,142.363205 884.324219,139.763580 
	C871.504150,134.712234 862.636658,125.447525 858.583740,111.982262 
	C857.046448,106.874741 857.962891,105.042648 863.246216,103.986305 
	C872.250549,102.185974 881.487183,101.244728 890.257629,98.681396 
	C896.351868,96.900261 899.519653,98.272438 902.660889,103.422150 
	C908.390137,112.814651 927.765625,115.120102 935.874329,107.751633 
	C939.443909,104.508049 938.837708,98.093277 934.670593,95.827003 
	C932.665222,94.736389 930.535522,93.872429 928.452148,92.927696 
	C917.546021,87.982079 906.432739,83.440605 895.794189,77.974777 
	C887.519409,73.723450 882.922363,66.499268 882.991943,56.795589 
	C883.153198,34.292912 893.858948,18.191021 913.523132,8.190154 
	C920.179382,4.804946 927.813049,3.341615 935.000000,1.000000 
z"/>
<path fill="#D22C29" opacity="1.000000" stroke="none" 
	d="
M254.984695,145.045197 
	C239.085220,144.240402 224.745743,139.290009 214.294708,126.940056 
	C210.077423,121.956482 207.706894,115.233162 205.261444,109.001190 
	C204.021988,105.842514 207.527924,104.607597 209.953705,104.102150 
	C221.205887,101.757629 232.484482,99.503761 243.826630,97.668617 
	C245.397491,97.414467 248.094849,99.245506 249.048309,100.841499 
	C255.394073,111.463730 271.905273,115.839035 282.120026,108.873360 
	C284.191833,107.460556 285.873383,104.007416 285.881256,101.489098 
	C285.887878,99.381218 283.649780,96.271019 281.607422,95.321472 
	C271.927979,90.821236 261.839752,87.201729 252.150452,82.720764 
	C237.144760,75.781136 230.068741,68.673927 231.233887,52.296391 
	C232.507568,34.393002 241.259125,20.065172 256.820190,11.089664 
	C264.388153,6.724518 273.352051,4.779523 281.842010,1.369473 
	C284.700012,1.000000 287.400024,1.000000 290.805237,1.327281 
	C295.340302,1.436375 299.170166,1.218187 303.000000,1.000000 
	C304.714355,1.000000 306.428711,1.000000 308.728271,1.368526 
	C313.860352,2.870674 318.569458,3.575145 322.922974,5.220454 
	C334.767761,9.696904 343.565063,17.519238 348.068756,29.675150 
	C350.039185,34.993465 348.941498,37.743778 344.300446,38.826981 
	C335.342102,40.917847 326.305176,42.739357 317.472382,45.271191 
	C313.322845,46.460621 311.459656,45.200668 309.565735,41.798691 
	C304.921936,33.457253 291.282562,29.885082 283.555847,35.258236 
	C281.336395,36.801636 279.318298,40.171745 279.246155,42.761124 
	C279.192078,44.701336 282.099609,47.200119 284.243073,48.602722 
	C286.810913,50.283016 290.000793,50.988354 292.864471,52.245419 
	C301.591187,56.076191 310.571350,59.452816 318.917480,63.990864 
	C326.471832,68.098396 332.774750,74.052048 334.413788,83.157341 
	C335.583527,89.655701 334.276672,95.799484 332.305542,102.252129 
	C329.427429,111.673698 324.162262,119.206589 317.596710,125.932640 
	C305.725189,138.094360 290.743713,143.689026 273.734039,144.730225 
	C267.296906,144.626099 261.140808,144.835648 254.984695,145.045197 
z"/>
<path fill="#D22C29" opacity="1.000000" stroke="none" 
	d="
M163.531342,1.000000 
	C165.454269,3.199598 165.214111,5.094469 163.862122,7.490110 
	C153.746262,25.414663 143.802078,43.436508 133.877777,61.468399 
	C132.101318,64.696114 130.498871,68.046257 129.159760,71.474144 
	C128.663132,72.745415 128.645142,74.674835 129.270493,75.842758 
	C139.108765,94.216911 149.140457,112.487434 158.995483,130.852722 
	C161.302048,135.151093 163.119766,139.711823 164.512543,144.500580 
	C152.588272,144.884079 141.313370,144.876389 130.039902,144.999603 
	C128.356491,145.018005 126.679802,145.651215 125.000000,146.000000 
	C125.000000,146.000000 124.500000,146.000000 124.196327,145.657288 
	C123.021736,144.319092 121.960388,143.433746 121.310692,142.310333 
	C116.959442,134.786499 112.726524,127.194328 108.392181,119.660591 
	C105.832176,115.210915 103.156639,110.827713 100.133698,105.742859 
	C98.785362,107.705147 98.100685,108.586761 97.536674,109.539780 
	C90.347717,121.687233 83.176056,133.844910 76.000000,146.000000 
	C76.000000,146.000000 75.500000,146.000000 74.994797,145.658371 
	C72.351196,145.195648 70.213806,144.993729 68.074226,144.967041 
	C57.144447,144.830688 46.214108,144.739563 35.059242,144.388275 
	C34.667244,143.576553 34.176975,142.828171 34.378967,142.467804 
	C45.067196,123.399002 55.998619,104.463348 66.434433,85.258278 
	C69.314949,79.957260 72.718582,74.161995 69.200630,67.591599 
	C67.528175,64.467987 65.916862,61.310947 64.205101,58.209202 
	C54.679867,40.949306 45.217648,23.653341 35.494133,6.505659 
	C34.141838,4.120852 34.599228,2.722044 36.000000,1.000000 
	C49.020893,1.000000 62.041790,1.000000 75.580627,1.343882 
	C81.330284,10.351553 86.577713,19.005899 91.786957,27.683174 
	C94.341606,31.938549 96.825363,36.236485 99.874023,41.421329 
	C101.430489,39.051422 102.350212,37.769676 103.148811,36.416451 
	C110.111526,24.618235 117.052536,12.807216 124.000000,1.000000 
	C137.020889,1.000000 150.041794,1.000000 163.531342,1.000000 
z"/>
<path fill="#D22C29" opacity="1.000000" stroke="none" 
	d="
M376.000000,146.000000 
	C372.637573,146.000000 369.275146,146.000000 365.364990,145.603455 
	C364.315948,144.831741 363.819794,144.138229 363.312561,144.130005 
	C357.327087,144.032959 351.338196,143.964417 345.355316,144.105255 
	C344.555817,144.124069 343.784424,145.338989 343.000000,146.000000 
	C340.958313,146.000000 338.916656,146.000000 336.329834,145.671631 
	C335.599670,143.466873 334.928711,141.474731 335.341705,139.740784 
	C335.988098,137.026947 337.508484,134.535553 338.413696,131.866852 
	C344.668854,113.425896 350.781036,94.936165 357.093445,76.514984 
	C364.369171,55.282581 371.745728,34.084084 379.227722,12.923621 
	C380.443512,9.485138 382.431702,6.319776 384.527405,3.021120 
	C402.773773,3.010466 420.556183,3.066907 438.336823,2.915524 
	C440.229828,2.899407 442.112518,1.667749 444.000000,0.999995 
	C444.444427,1.000000 444.888885,1.000000 445.837708,1.377458 
	C447.332245,1.846062 448.322571,1.934634 449.312408,2.028742 
	C461.753784,3.211613 475.749756,11.415069 479.750397,24.955679 
	C485.319855,43.806095 479.256348,60.295303 466.845062,74.016724 
	C455.294434,86.786667 440.290894,93.767174 422.396698,93.053459 
	C414.911743,92.754921 407.390259,92.741608 399.917023,93.161774 
	C397.637390,93.289940 394.102692,94.795082 393.466309,96.524597 
	C389.894531,106.231033 387.217712,116.262024 383.865570,126.055664 
	C381.553772,132.809906 378.643066,139.359146 376.000000,146.000000 
M407.751770,56.250328 
	C407.361603,57.738392 406.971436,59.226456 406.490509,61.060795 
	C411.406982,61.060795 415.708160,61.230652 419.990692,61.020920 
	C426.385956,60.707718 431.682617,58.029484 435.732758,52.986904 
	C440.972076,46.463764 437.884064,36.959995 429.772980,35.234554 
	C427.059570,34.657341 424.006195,35.473751 421.386108,34.705482 
	C416.141876,33.167751 414.324524,36.095581 412.990784,40.130630 
	C411.299042,45.248882 409.639557,50.377804 407.751770,56.250328 
z"/>
<path fill="#D22C29" opacity="1.000000" stroke="none" 
	d="
M874.000000,1.000012 
	C878.025513,1.000000 882.050964,1.000000 886.550598,1.397331 
	C887.067078,3.984029 887.663025,6.343107 887.053223,8.332554 
	C884.748535,15.851158 881.856812,23.190580 879.581055,30.716908 
	C878.341431,34.816608 875.880249,36.084148 871.930115,35.990906 
	C865.450623,35.837963 858.951843,36.169308 852.487976,35.811699 
	C848.397156,35.585384 846.389465,37.324940 845.192688,40.904495 
	C842.904175,47.749393 840.479675,54.548683 838.138672,61.376186 
	C831.270447,81.407768 824.704529,101.549835 817.417847,121.427841 
	C814.367126,129.750214 813.468933,139.096130 807.000000,146.000000 
	C803.638306,146.000000 800.276672,146.000000 796.382690,145.598282 
	C795.343933,144.825684 794.842285,144.139557 794.330383,144.131882 
	C788.010437,144.036835 781.687561,143.970230 775.369934,144.107178 
	C774.566650,144.124588 773.789368,145.339752 773.000000,146.000000 
	C771.933289,146.000000 770.866638,146.000000 769.287781,145.659912 
	C768.610291,143.101379 767.726440,140.637314 768.388062,138.701508 
	C777.406311,112.317291 786.690552,86.024155 795.785339,59.665833 
	C798.445740,51.955353 800.717224,44.110657 803.345703,35.759731 
	C793.004395,35.759731 783.708191,35.759731 773.450317,35.759731 
	C777.449097,24.475632 781.250488,13.748512 785.517090,3.025415 
	C813.538818,3.018676 841.095398,3.044952 868.651245,2.911597 
	C870.437195,2.902953 872.217224,1.665739 874.000000,1.000012 
z"/>
<path fill="#FFFFFF" opacity="1.000000" stroke="none" 
	d="
M376.468628,146.000000 
	C378.643066,139.359146 381.553772,132.809906 383.865570,126.055664 
	C387.217712,116.262024 389.894531,106.231033 393.466309,96.524597 
	C394.102692,94.795082 397.637390,93.289940 399.917023,93.161774 
	C407.390259,92.741608 414.911743,92.754921 422.396698,93.053459 
	C440.290894,93.767174 455.294434,86.786667 466.845062,74.016724 
	C479.256348,60.295303 485.319855,43.806095 479.750397,24.955679 
	C475.749756,11.415069 461.753784,3.211613 449.312408,2.028742 
	C448.322571,1.934634 447.332245,1.846062 446.171082,1.377458 
	C482.020905,1.000000 518.041809,1.000000 554.540405,1.226876 
	C555.018127,1.453752 554.964661,1.904703 554.964661,1.904703 
	C543.639526,2.892721 534.046997,8.028213 524.889038,14.315271 
	C503.153931,29.236589 488.858643,49.635082 482.533722,74.978409 
	C479.221527,88.249962 476.627350,102.203613 482.084137,115.823341 
	C488.185913,131.052872 500.066681,139.603592 515.406067,143.946060 
	C517.272522,144.474442 519.235657,144.661362 521.600281,145.261688 
	C522.046570,145.516815 522.000000,146.000000 522.000000,146.000000 
	C473.645782,146.000000 425.291534,146.000000 376.468628,146.000000 
z"/>
<path fill="#FFFFFF" opacity="1.000000" stroke="none" 
	d="
M807.468628,146.000000 
	C813.468933,139.096130 814.367126,129.750214 817.417847,121.427841 
	C824.704529,101.549835 831.270447,81.407768 838.138672,61.376186 
	C840.479675,54.548683 842.904175,47.749393 845.192688,40.904495 
	C846.389465,37.324940 848.397156,35.585384 852.487976,35.811699 
	C858.951843,36.169308 865.450623,35.837963 871.930115,35.990906 
	C875.880249,36.084148 878.341431,34.816608 879.581055,30.716908 
	C881.856812,23.190580 884.748535,15.851158 887.053223,8.332554 
	C887.663025,6.343107 887.067078,3.984029 887.012329,1.397331 
	C902.687561,1.000000 918.375122,1.000000 934.531372,1.000000 
	C927.813049,3.341615 920.179382,4.804946 913.523132,8.190154 
	C893.858948,18.191021 883.153198,34.292912 882.991943,56.795589 
	C882.922363,66.499268 887.519409,73.723450 895.794189,77.974777 
	C906.432739,83.440605 917.546021,87.982079 928.452148,92.927696 
	C930.535522,93.872429 932.665222,94.736389 934.670593,95.827003 
	C938.837708,98.093277 939.443909,104.508049 935.874329,107.751633 
	C927.765625,115.120102 908.390137,112.814651 902.660889,103.422150 
	C899.519653,98.272438 896.351868,96.900261 890.257629,98.681396 
	C881.487183,101.244728 872.250549,102.185974 863.246216,103.986305 
	C857.962891,105.042648 857.046448,106.874741 858.583740,111.982262 
	C862.636658,125.447525 871.504150,134.712234 884.324219,139.763580 
	C890.921997,142.363205 898.169983,143.312653 905.583557,145.263916 
	C906.042969,145.520035 906.000000,146.000000 906.000000,146.000000 
	C873.312439,146.000000 840.624878,146.000000 807.468628,146.000000 
z"/>
<path fill="#FFFFFF" opacity="1.000000" stroke="none" 
	d="
M785.051880,3.021380 
	C781.250488,13.748512 777.449097,24.475632 773.450317,35.759731 
	C783.708191,35.759731 793.004395,35.759731 803.345703,35.759731 
	C800.717224,44.110657 798.445740,51.955353 795.785339,59.665833 
	C786.690552,86.024155 777.406311,112.317291 768.388062,138.701508 
	C767.726440,140.637314 768.610291,143.101379 768.887817,145.659912 
	C755.645752,146.000000 742.291565,146.000000 728.468628,146.000000 
	C728.661987,144.334244 729.992432,142.621796 729.879822,141.010193 
	C729.023254,128.752045 727.877747,116.514153 726.837891,104.268623 
	C726.531921,100.665619 726.434448,97.037437 725.961182,93.457832 
	C725.224976,87.889435 726.818054,84.276077 732.506714,81.988396 
	C756.521423,72.330841 764.448730,50.223175 762.657532,29.097006 
	C761.583801,16.432903 753.269836,8.524258 741.646790,4.151983 
	C738.655029,3.026559 735.429077,2.523605 732.155396,1.367354 
	C749.687561,1.000000 767.375122,1.000000 785.501221,1.291146 
	C785.643738,2.061985 785.347778,2.541677 785.051880,3.021380 
z"/>
<path fill="#FFFFFF" opacity="1.000000" stroke="none" 
	d="
M384.062866,3.028172 
	C382.431702,6.319776 380.443512,9.485138 379.227722,12.923621 
	C371.745728,34.084084 364.369171,55.282581 357.093445,76.514984 
	C350.781036,94.936165 344.668854,113.425896 338.413696,131.866852 
	C337.508484,134.535553 335.988098,137.026947 335.341705,139.740784 
	C334.928711,141.474731 335.599670,143.466873 335.892334,145.671631 
	C315.645782,146.000000 295.291534,146.000000 274.448486,145.760590 
	C273.959686,145.521194 274.015045,145.043884 274.015045,145.043884 
	C290.743713,143.689026 305.725189,138.094360 317.596710,125.932640 
	C324.162262,119.206589 329.427429,111.673698 332.305542,102.252129 
	C334.276672,95.799484 335.583527,89.655701 334.413788,83.157341 
	C332.774750,74.052048 326.471832,68.098396 318.917480,63.990864 
	C310.571350,59.452816 301.591187,56.076191 292.864471,52.245419 
	C290.000793,50.988354 286.810913,50.283016 284.243073,48.602722 
	C282.099609,47.200119 279.192078,44.701336 279.246155,42.761124 
	C279.318298,40.171745 281.336395,36.801636 283.555847,35.258236 
	C291.282562,29.885082 304.921936,33.457253 309.565735,41.798691 
	C311.459656,45.200668 313.322845,46.460621 317.472382,45.271191 
	C326.305176,42.739357 335.342102,40.917847 344.300446,38.826981 
	C348.941498,37.743778 350.039185,34.993465 348.068756,29.675150 
	C343.565063,17.519238 334.767761,9.696904 322.922974,5.220454 
	C318.569458,3.575145 313.860352,2.870674 309.156738,1.368526 
	C334.020905,1.000000 359.041779,1.000000 384.479462,1.289893 
	C384.618469,2.062580 384.340668,2.545374 384.062866,3.028172 
z"/>
<path fill="#FFFFFF" opacity="1.000000" stroke="none" 
	d="
M539.018860,145.054764 
	C553.942444,144.251083 566.648560,137.964951 577.745544,128.497314 
	C595.879272,113.026077 608.231201,93.611786 614.429199,70.603493 
	C617.996216,57.361805 618.586731,43.761898 613.589661,30.690254 
	C607.242920,14.088448 594.636536,4.819561 577.151001,1.362975 
	C603.687561,1.000000 630.375122,1.000000 657.531372,1.000008 
	C654.053040,11.154992 649.846985,21.218241 646.212158,31.483761 
	C638.261536,53.937561 630.615906,76.499237 622.816589,99.006760 
	C617.968445,112.997696 613.015747,126.952858 608.277405,140.980606 
	C607.857788,142.222733 608.678040,143.883698 608.961243,145.675064 
	C585.979126,146.000000 562.958191,146.000000 539.455444,145.763336 
	C538.973633,145.526657 539.018860,145.054764 539.018860,145.054764 
z"/>
<path fill="#FFFFFF" opacity="1.000000" stroke="none" 
	d="
M926.009949,145.028015 
	C944.142456,144.042313 959.224609,136.642639 971.846375,123.686531 
	C978.765015,116.584740 984.209351,108.620018 986.211487,98.916847 
	C988.326660,88.665771 986.448975,79.463150 978.818909,71.203728 
	C969.456238,61.068638 956.962524,57.338051 945.040039,52.225361 
	C942.167419,50.993511 939.041626,50.249222 936.360291,48.709431 
	C934.477661,47.628342 932.255859,45.807354 931.771545,43.911552 
	C930.888245,40.454105 931.878967,37.203148 935.478516,35.010536 
	C942.485779,30.742094 958.127258,33.573093 961.204773,41.416428 
	C962.755249,45.367794 965.448425,46.443768 969.907654,45.128403 
	C978.385864,42.627537 987.117920,40.998093 995.693726,38.807663 
	C997.344910,38.385902 998.763000,37.051411 1000.644287,36.068985 
	C1001.000000,72.579758 1001.000000,109.159515 1001.000000,146.000000 
	C976.313049,146.000000 951.625183,146.000000 926.454834,145.756836 
	C925.972412,145.513672 926.009949,145.028015 926.009949,145.028015 
z"/>
<path fill="#D3302D" opacity="1.000000" stroke="none" 
	d="
M23.000000,146.000000 
	C16.333334,146.000000 9.665411,146.057663 3.001905,145.912521 
	C2.321043,145.897690 1.666669,144.666656 1.316525,143.455139 
	C2.295269,142.012756 3.068482,141.176285 3.601165,140.207550 
	C6.428946,135.064957 9.161169,129.869797 11.991283,124.728493 
	C20.515699,109.242729 28.979599,93.722321 37.677990,78.334625 
	C39.785465,74.606445 39.606766,71.653831 37.544598,67.925621 
	C27.378256,49.545822 17.553493,30.977411 7.473505,12.549232 
	C5.636432,9.190702 3.173838,6.174324 1.000000,3.000000 
	C1.641840,2.333333 2.270795,1.102506 2.927520,1.087507 
	C9.303164,0.941889 15.683464,1.000000 22.593182,1.340843 
	C24.285704,3.261593 25.614668,4.745667 26.583618,6.436100 
	C37.306339,25.142984 47.830978,43.965225 58.731598,62.567345 
	C62.595852,69.161766 64.517883,75.153954 59.884323,82.304695 
	C55.104279,89.681519 51.166817,97.600288 46.757133,105.222015 
	C38.879131,118.838425 30.923298,132.409805 23.000000,146.000000 
z"/>
<path fill="#FFFFFF" opacity="1.000000" stroke="none" 
	d="
M1.000000,3.468657 
	C3.173838,6.174324 5.636432,9.190702 7.473505,12.549232 
	C17.553493,30.977411 27.378256,49.545822 37.544598,67.925621 
	C39.606766,71.653831 39.785465,74.606445 37.677990,78.334625 
	C28.979599,93.722321 20.515699,109.242729 11.991283,124.728493 
	C9.161169,129.869797 6.428946,135.064957 3.601165,140.207550 
	C3.068482,141.176285 2.295269,142.012756 1.316524,142.955139 
	C1.000000,96.645775 1.000000,50.291542 1.000000,3.468657 
z"/>
<path fill="#FFFFFF" opacity="1.000000" stroke="none" 
	d="
M648.468628,146.000000 
	C650.498291,140.840393 653.443970,135.843506 655.393127,130.484177 
	C658.547119,121.812027 661.031189,112.896919 663.836548,104.096664 
	C664.318115,102.586021 664.872986,101.075218 665.601196,99.672020 
	C666.832397,97.299576 667.734070,93.714561 669.665894,92.977928 
	C673.026978,91.696335 677.075684,91.971741 680.815613,92.117561 
	C681.660767,92.150513 682.986572,94.268608 683.122620,95.531189 
	C683.655090,100.475105 683.859558,105.458183 684.075745,110.431480 
	C684.500977,120.215446 684.722534,130.010925 685.348206,139.781174 
	C685.468018,141.652573 687.058777,143.429779 687.985474,145.625214 
	C674.979126,146.000000 661.958191,146.000000 648.468628,146.000000 
z"/>
<path fill="#FFFEFE" opacity="1.000000" stroke="none" 
	d="
M23.460636,146.000000 
	C30.923298,132.409805 38.879131,118.838425 46.757133,105.222015 
	C51.166817,97.600288 55.104279,89.681519 59.884323,82.304695 
	C64.517883,75.153954 62.595852,69.161766 58.731598,62.567345 
	C47.830978,43.965225 37.306339,25.142984 26.583618,6.436100 
	C25.614668,4.745667 24.285704,3.261593 23.061964,1.340843 
	C27.024544,1.000000 31.049088,1.000000 35.536816,1.000000 
	C34.599228,2.722044 34.141838,4.120852 35.494133,6.505659 
	C45.217648,23.653341 54.679867,40.949306 64.205101,58.209202 
	C65.916862,61.310947 67.528175,64.467987 69.200630,67.591599 
	C72.718582,74.161995 69.314949,79.957260 66.434433,85.258278 
	C55.998619,104.463348 45.067196,123.399002 34.378967,142.467804 
	C34.176975,142.828171 34.667244,143.576553 34.975655,144.727539 
	C35.077854,145.540771 35.038925,145.770386 35.000000,146.000000 
	C31.307091,146.000000 27.614182,146.000000 23.460636,146.000000 
z"/>
<path fill="#FFFFFF" opacity="1.000000" stroke="none" 
	d="
M123.531342,1.000000 
	C117.052536,12.807216 110.111526,24.618235 103.148811,36.416451 
	C102.350212,37.769676 101.430489,39.051422 99.874023,41.421329 
	C96.825363,36.236485 94.341606,31.938549 91.786957,27.683174 
	C86.577713,19.005899 81.330284,10.351553 76.049286,1.343882 
	C91.687561,1.000000 107.375122,1.000000 123.531342,1.000000 
z"/>
<path fill="#FFFFFF" opacity="1.000000" stroke="none" 
	d="
M76.468658,146.000000 
	C83.176056,133.844910 90.347717,121.687233 97.536674,109.539780 
	C98.100685,108.586761 98.785362,107.705147 100.133698,105.742859 
	C103.156639,110.827713 105.832176,115.210915 108.392181,119.660591 
	C112.726524,127.194328 116.959442,134.786499 121.310692,142.310333 
	C121.960388,143.433746 123.021736,144.319092 123.946327,145.657288 
	C108.312439,146.000000 92.624878,146.000000 76.468658,146.000000 
z"/>
<path fill="#FFFEFE" opacity="1.000000" stroke="none" 
	d="
M1001.000000,27.531345 
	C999.899963,26.689175 998.615173,25.491899 997.728821,24.049757 
	C989.568665,10.772503 977.329834,4.037663 962.137451,1.377125 
	C974.913208,1.000000 987.826416,1.000000 1001.000000,1.000000 
	C1001.000000,9.685828 1001.000000,18.374252 1001.000000,27.531345 
z"/>
<path fill="#D5413E" opacity="1.000000" stroke="none" 
	d="
M785.517090,3.025404 
	C785.347778,2.541677 785.643738,2.061985 785.969849,1.291146 
	C815.020874,1.000000 844.041809,1.000000 873.531372,1.000012 
	C872.217224,1.665739 870.437195,2.902953 868.651245,2.911597 
	C841.095398,3.044952 813.538818,3.018676 785.517090,3.025404 
z"/>
<path fill="#D84E4C" opacity="1.000000" stroke="none" 
	d="
M384.527374,3.021115 
	C384.340668,2.545374 384.618469,2.062580 384.948120,1.289893 
	C404.354218,1.000000 423.708466,1.000000 443.531342,0.999995 
	C442.112518,1.667749 440.229828,2.899407 438.336823,2.915524 
	C420.556183,3.066907 402.773773,3.010466 384.527374,3.021115 
z"/>
<path fill="#EED7D6" opacity="1.000000" stroke="none" 
	d="
M721.531372,1.000000 
	C721.323975,1.327940 720.647583,1.942756 719.971985,1.941923 
	C702.454224,1.920320 684.936523,1.834692 667.209412,1.380063 
	C685.020874,1.000000 703.041809,1.000000 721.531372,1.000000 
z"/>
<path fill="#D64340" opacity="1.000000" stroke="none" 
	d="
M773.468628,146.000000 
	C773.789368,145.339752 774.566650,144.124588 775.369934,144.107178 
	C781.687561,143.970230 788.010437,144.036835 794.330383,144.131882 
	C794.842285,144.139557 795.343933,144.825684 795.925171,145.598282 
	C788.645752,146.000000 781.291504,146.000000 773.468628,146.000000 
z"/>
<path fill="#D5413E" opacity="1.000000" stroke="none" 
	d="
M343.468567,146.000000 
	C343.784424,145.338989 344.555817,144.124069 345.355316,144.105255 
	C351.338196,143.964417 357.327087,144.032959 363.312561,144.130005 
	C363.819794,144.138229 364.315948,144.831741 364.908630,145.603455 
	C357.979034,146.000000 350.958099,146.000000 343.468567,146.000000 
z"/>
<path fill="#D64340" opacity="1.000000" stroke="none" 
	d="
M555.247314,2.220210 
	C554.964661,1.904703 555.018127,1.453752 555.009033,1.226876 
	C561.687622,1.000000 568.375305,1.000000 575.531494,1.000006 
	C575.235107,1.663116 574.471313,2.897387 573.705078,2.898843 
	C567.646973,2.910351 561.588440,2.686914 555.247314,2.220210 
z"/>
<path fill="#D5413E" opacity="1.000000" stroke="none" 
	d="
M698.468384,146.000000 
	C698.174011,145.539368 698.356018,144.673340 698.520935,144.676575 
	C704.958069,144.802414 711.393616,145.007507 717.914673,145.601105 
	C711.645569,146.000000 705.291199,146.000000 698.468384,146.000000 
z"/>
<path fill="#D74B48" opacity="1.000000" stroke="none" 
	d="
M925.727173,144.717026 
	C926.009949,145.028015 925.972412,145.513672 925.986206,145.756836 
	C919.645569,146.000000 913.291199,146.000000 906.468384,146.000000 
	C906.000000,146.000000 906.042969,145.520035 906.014526,145.280762 
	C912.472229,144.829681 918.958313,144.617859 925.727173,144.717026 
z"/>
<path fill="#F2C7C7" opacity="1.000000" stroke="none" 
	d="
M35.468658,146.000000 
	C35.038925,145.770386 35.077854,145.540771 35.200375,144.971893 
	C46.214108,144.739563 57.144447,144.830688 68.074226,144.967041 
	C70.213806,144.993729 72.351196,145.195648 74.744797,145.658371 
	C61.979107,146.000000 48.958210,146.000000 35.468658,146.000000 
z"/>
<path fill="#F2C7C7" opacity="1.000000" stroke="none" 
	d="
M125.468658,146.000000 
	C126.679802,145.651215 128.356491,145.018005 130.039902,144.999603 
	C141.313370,144.876389 152.588272,144.884079 164.306671,144.758942 
	C164.800491,144.888947 164.850327,145.109299 164.950073,145.664825 
	C151.979111,146.000000 138.958206,146.000000 125.468658,146.000000 
z"/>
<path fill="#D74B48" opacity="1.000000" stroke="none" 
	d="
M273.734039,144.730225 
	C274.015045,145.043884 273.959686,145.521194 273.979858,145.760590 
	C267.978851,146.000000 261.957703,146.000000 255.468277,146.000000 
	C255.000000,146.000000 255.037903,145.521866 255.011292,145.283539 
	C261.140808,144.835648 267.296906,144.626099 273.734039,144.730225 
z"/>
<path fill="#D74B48" opacity="1.000000" stroke="none" 
	d="
M538.740112,144.739136 
	C539.018860,145.054764 538.973633,145.526657 538.986816,145.763336 
	C533.645081,146.000000 528.290100,146.000000 522.467590,146.000000 
	C522.000000,146.000000 522.046570,145.516815 522.017395,145.275864 
	C527.479248,144.831100 532.970337,144.627304 538.740112,144.739136 
z"/>
<path fill="#D64340" opacity="1.000000" stroke="none" 
	d="
M621.466125,146.000000 
	C621.619080,145.353729 622.266357,144.125595 622.852600,144.154053 
	C627.183167,144.364212 631.501526,144.824860 635.911865,145.603363 
	C631.310730,146.000000 626.621521,146.000000 621.466125,146.000000 
z"/>
<path fill="#D84E4C" opacity="1.000000" stroke="none" 
	d="
M302.539368,1.000000 
	C299.170166,1.218187 295.340302,1.436375 291.255249,1.327281 
	C294.692902,1.000000 298.385834,1.000000 302.539368,1.000000 
z"/>
<path fill="#FFFFFF" opacity="1.000000" stroke="none" 
	d="
M682.565796,49.588573 
	C683.048462,48.298027 683.249329,47.320320 683.621643,46.412907 
	C685.326355,42.257969 687.079041,38.122700 688.814514,33.980362 
	C697.182617,34.518299 705.659485,34.429188 713.873962,35.853378 
	C718.109253,36.587669 719.463928,41.993870 718.131836,46.456135 
	C715.184082,56.330311 707.301208,59.188755 698.345154,59.920818 
	C692.085266,60.432499 685.749817,60.019489 679.089722,60.019489 
	C680.246338,56.455627 681.304626,53.194702 682.565796,49.588573 
z"/>
<path fill="#FFFFFF" opacity="1.000000" stroke="none" 
	d="
M526.540771,82.712204 
	C531.079407,69.515022 534.748901,56.430351 542.765869,45.123104 
	C546.527588,39.817581 551.427673,36.479210 557.551575,35.167789 
	C565.691895,33.424568 575.699585,39.374786 573.709351,50.135773 
	C570.000977,70.186211 562.975952,89.030731 550.974121,105.735214 
	C546.530457,111.920006 533.496338,114.276268 527.758423,109.128975 
	C525.226562,106.857803 524.213379,101.903481 524.133728,98.133003 
	C524.027954,93.125839 525.508972,88.085152 526.540771,82.712204 
z"/>
<path fill="#FFFFFF" opacity="1.000000" stroke="none" 
	d="
M407.858948,55.876225 
	C409.639557,50.377804 411.299042,45.248882 412.990784,40.130630 
	C414.324524,36.095581 416.141876,33.167751 421.386108,34.705482 
	C424.006195,35.473751 427.059570,34.657341 429.772980,35.234554 
	C437.884064,36.959995 440.972076,46.463764 435.732758,52.986904 
	C431.682617,58.029484 426.385956,60.707718 419.990692,61.020920 
	C415.708160,61.230652 411.406982,61.060795 406.490509,61.060795 
	C406.971436,59.226456 407.361603,57.738392 407.858948,55.876225 
z"/>
</svg>